<svg id="Layer_1_1_" enable-background="new 0 0 64 64" height="512" viewBox="0 0 64 64" width="512" xmlns="http://www.w3.org/2000/svg"><path d="m53.146 48.146c-2.364 2.364-2.14 7.848-2.14 7.848s5.484.224 7.848-2.14 2.14-7.848 2.14-7.848-5.484-.224-7.848 2.14z" fill="#93c666"/><path d="m43.146 53.854c2.364 2.364 7.848 2.14 7.848 2.14s.224-5.484-2.14-7.848-7.848-2.14-7.848-2.14-.224 5.484 2.14 7.848z" fill="#93c666"/><path d="m50 44h2v18h-2z" fill="#7caa50"/><path d="m54.955 40c0 3.314-4 6-4 6s-4-2.686-4-6 4-8 4-8 4 4.686 4 8z" fill="#93c666"/><path d="m31 10.071c0-3.905-3.166-7.071-7.071-7.071-1.875 0-3.674.745-5 2.071l-6.929 6.929 10 10 6.929-6.929c1.326-1.326 2.071-3.125 2.071-5z" fill="#ea5b58"/><path d="m5.071 18.929c-1.326 1.326-2.071 3.125-2.071 5 0 3.905 3.166 7.071 7.071 7.071 1.875 0 3.674-.745 5-2.071l6.929-6.929-10-10z" fill="#ffb554"/><path d="m28.929 10.071-9.429 9.429 2.5 2.5 6.929-6.929c1.326-1.326 2.071-3.125 2.071-5 0-.882-.169-1.723-.464-2.502-.351.93-.891 1.786-1.607 2.502z" fill="#e34e4b"/><path d="m15.071 23.929c-1.326 1.326-3.125 2.071-5 2.071-3.023 0-5.596-1.901-6.607-4.569-.299.791-.464 1.635-.464 2.498 0 3.905 3.166 7.071 7.071 7.071 1.875 0 3.674-.745 5-2.071l6.929-6.929-2.5-2.5z" fill="#f5a947"/><g fill="#223b5a"><path d="m47 7h-9.586l1.293-1.293-1.414-1.414-3.707 3.707 3.707 3.707 1.414-1.414-1.293-1.293h9.586c1.654 0 3 1.346 3 3v9h2v-9c0-2.757-2.243-5-5-5z"/><path d="m50 23h2v2h-2z"/><path d="m50 27h2v2h-2z"/><path d="m35.707 51.293-1.414 1.414 1.293 1.293h-23.586c-1.654 0-3-1.346-3-3v-5h-2v5c0 2.757 2.243 5 5 5h23.586l-1.293 1.293 1.414 1.414 3.707-3.707z"/><path d="m7 38h2v2h-2z"/><path d="m7 34h2v2h-2z"/><path d="m7 42h2v2h-2z"/></g></svg>