<svg height="512" viewBox="0 0 512 512" width="512" xmlns="http://www.w3.org/2000/svg"><g id="Fill_out_line" data-name="Fill out line"><path d="m440 176h-232v-40h208z" fill="#ab693d"/><path d="m208 176h232v80h-232z" fill="#8c5428"/><path d="m416 136h-208l-8-40h152z" fill="#da9065"/><path d="m304 176-24-40-80-40-80 40-24 40v80h208z" fill="#e04446"/><path d="m168 176h32v80h-32z" fill="#da9065"/><path d="m440 176 48 32h-136l-48-32z" fill="#da9065"/><path d="m440 208h48v48h-48z" fill="#9f764a"/><path d="m304 176 48 32v48h-48z" fill="#ba8b5d"/><circle cx="296" cy="88" fill="#529ddf" r="16"/><path d="m24 496v-104a32 32 0 0 1 32-32h64v136z" fill="#fdc5ca"/><rect fill="#529ddf" height="96" rx="16" transform="matrix(0 -1 1 0 -260 468)" width="184" x="12" y="316"/><rect fill="#d4e4f0" height="96" rx="16" transform="matrix(0 -1 1 0 -260 468)" width="120" x="44" y="316"/><path d="m48 448 28-28a16.97055 16.97055 0 0 1 24 0 16.97055 16.97055 0 0 1 0 24l-20 20a24 24 0 0 1 -24 24h-8z" fill="#fdc5ca"/><path d="m392 432h16a16 16 0 0 0 16-16v-40h-48v40a16 16 0 0 0 16 16z" fill="#ffefd6"/><path d="m456 360v24l-8 72h-24l-8-64h-8a24.006 24.006 0 0 1 -24 24h-21.33l-10.67 40h-16v-48h-24v48h-16l-16-56v-80h136a40 40 0 0 1 40 40z" fill="#d4e4f0"/><path d="m320 320v8a24 24 0 0 0 24 24h8v4a20 20 0 0 0 20 20 20 20 0 0 0 20-20v-36z" fill="#68737f"/><g fill="#d4e4f0"><path d="m312 304v40a24 24 0 0 1 -48 0v-40z"/><path d="m264 320v16h-16a15.99559 15.99559 0 0 1 -16-16v-16h16a15.99552 15.99552 0 0 1 16 16z"/><path d="m344 304v16a15.99559 15.99559 0 0 1 -16 16h-16v-16a15.99552 15.99552 0 0 1 16-16z"/></g><path d="m303.08 362.65991a23.96248 23.96248 0 0 1 -30.16 0 15.99641 15.99641 0 0 1 30.16 0z" fill="#68737f"/><path d="m136 216h-8v16h8a56.06322 56.06322 0 0 1 56 56v8h16v-8a72.08124 72.08124 0 0 0 -72-72z"/><path d="m136 240h-8v16h8a32.03635 32.03635 0 0 1 32 32v8h16v-8a48.054 48.054 0 0 0 -48-48z"/><path d="m136 264h-64a24.0275 24.0275 0 0 0 -24 24v64.80518a40.06773 40.06773 0 0 0 -32 39.19482v104h16v-104a24.03879 24.03879 0 0 1 16-22.624v67.31l-5.65674 5.65673 11.31348 11.31446 28-28a8.97038 8.97038 0 1 1 12.68652 12.68554l-20 20a8.00076 8.00076 0 0 0 -2.34326 5.65727 16.01833 16.01833 0 0 1 -16 16v16a32.045 32.045 0 0 0 31.80957-28.49609l3.50403-3.50391h20.6864v32h16v-32h8a24.0275 24.0275 0 0 0 24-24v-152a24.0275 24.0275 0 0 0 -24-24zm-64 16h64a8.00917 8.00917 0 0 1 8 8v9.376a23.894 23.894 0 0 0 -8-1.376h-64a23.894 23.894 0 0 0 -8 1.376v-9.376a8.00917 8.00917 0 0 1 8-8zm64 168h-28.83191a24.7804 24.7804 0 0 0 5.80261-16h23.0293a23.894 23.894 0 0 0 8-1.376v9.376a8.00917 8.00917 0 0 1 -8 8zm8-40a8.00917 8.00917 0 0 1 -8 8h-28.83191c-.47766-.57031-.97906-1.125-1.51135-1.65723a25.00157 25.00157 0 0 0 -35.31348 0l-1.142 1.14209a8.00588 8.00588 0 0 1 -5.20126-7.48486v-88a8.00917 8.00917 0 0 1 8-8h64a8.00917 8.00917 0 0 1 8 8z"/><path d="m96 370.1582v-42.1582h-16v42.1582a16 16 0 1 0 16 0z"/><path d="m112 328h16v16h-16z"/><path d="m112 352h16v16h-16z"/><path d="m495.98535 208a7.98675 7.98675 0 0 0 -3.54785-6.65625l-46.50269-31.00195-23.07495-38.458a7.99892 7.99892 0 0 0 -2.61963-2.668l-64-40a7.998 7.998 0 0 0 -4.24023-1.2158h-16v16h13.70557l38.40026 24h-106.21765l-48-24h22.11182v-16h-55.99152a7.99288 7.99288 0 0 0 -3.58612.84473l-80 40a7.99989 7.99989 0 0 0 -3.28222 3.03906l-24 40a7.99883 7.99883 0 0 0 -1.14014 4.11621v72h16v-69.78418l21.66113-36.10254 74.33887-37.16894 74.33887 37.16894 21.66113 36.10254v69.78418h-56v-72a8.00008 8.00008 0 0 0 -8-8h-64a8.00008 8.00008 0 0 0 -8 8v32h16v-24h16v40h16v-40h16v64h-8v16h272a8.00008 8.00008 0 0 0 8-8v-48zm-135.98535 8h72v32h-72zm-5.57764-16-24-16h107.15528l24 16zm-60.29272-56h117.34094l14.3999 24h-117.34094zm17.87036 46.948 32 21.33325v35.71875h-32zm136 57.052v-32h32v32z"/><path d="m248 144h16v16h-16z"/><path d="m136 144h16v16h-16z"/><path d="m192 120h16v16h-16z"/><path d="m416 312h-64v-8a8.00008 8.00008 0 0 0 -8-8h-16a23.85413 23.85413 0 0 0 -10.34106 2.3457 7.974 7.974 0 0 0 -5.65894-2.3457h-48a7.974 7.974 0 0 0 -5.65894 2.3457 23.85413 23.85413 0 0 0 -10.34106-2.3457h-16a8.00008 8.00008 0 0 0 -8 8v16a24.02718 24.02718 0 0 0 24 24h8a32.01084 32.01084 0 0 0 16 27.69482v28.30518a8.00881 8.00881 0 0 0 .30762 2.19824l16 56a8.001 8.001 0 0 0 7.69238 5.80176h16a8.00008 8.00008 0 0 0 8-8v-40h8v40a8.00008 8.00008 0 0 0 8 8h16a8.001 8.001 0 0 0 7.69238-5.80176l9.73108-34.05859a24.04012 24.04012 0 0 0 22.57654 15.86035h16a23.808 23.808 0 0 0 5.84546-.73877l2.21655 17.731a7.99907 7.99907 0 0 0 7.93799 7.00777h24a8.00054 8.00054 0 0 0 7.95117-7.11621l8-72a7.98678 7.98678 0 0 0 .04883-.88379v-24a48.054 48.054 0 0 0 -48-48zm-64 32h-8a15.97015 15.97015 0 0 1 -7.15942-1.69434 24.11809 24.11809 0 0 0 13.7832-14.30566h33.37622v28a12 12 0 0 1 -24 0v-4a8.00008 8.00008 0 0 0 -8-8zm-24-32h8v8a8.00917 8.00917 0 0 1 -8 8h-8v-8a8.00917 8.00917 0 0 1 8-8zm-56 0h32v32a16 16 0 0 1 -32 0zm-24 16a8.00917 8.00917 0 0 1 -8-8v-8h8a8.00917 8.00917 0 0 1 8 8v8zm160 96h-16a7.94314 7.94314 0 0 1 -2.64941-.46045 32.0442 32.0442 0 0 0 20.87646-13.22412l1.58887 12.71094a7.95919 7.95919 0 0 1 -3.81592.97363zm40-40.44336-7.16016 64.44336h-9.77784l-7.124-56.99219a7.99907 7.99907 0 0 0 -7.938-7.00781h-8a8.00008 8.00008 0 0 0 -8 8 16.01833 16.01833 0 0 1 -16 16h-9.96533l1.65771-5.80176a8.00881 8.00881 0 0 0 .30762-2.19824v-8h-16v6.87988l-14.03418 49.12012h-1.96582v-40a8.00008 8.00008 0 0 0 -8-8h-24a8.00008 8.00008 0 0 0 -8 8v40h-1.96582l-14.03418-49.12012v-22.87988a32.04829 32.04829 0 0 0 31.64819-27.271 32.04382 32.04382 0 0 0 24.35181 11.271h.28467a28.00135 28.00135 0 0 0 55.71533-4v-28h16a31.79414 31.79414 0 0 1 16 4.30518v8.38134a19.31415 19.31415 0 0 1 -19.31348 19.31348h-4.68652v16h4.68652a35.34137 35.34137 0 0 0 33.90259-25.39893 31.88869 31.88869 0 0 1 1.41089 9.39893z"/><path d="m296 64a24 24 0 1 0 24 24 24.02718 24.02718 0 0 0 -24-24zm0 32a8 8 0 1 1 8-8 8.00917 8.00917 0 0 1 -8 8z"/><path d="m296 40a47.68722 47.68722 0 0 0 -33.94092 14.05859l11.31348 11.31446a32.03672 32.03672 0 0 1 45.25488 0l11.31348-11.31446a47.68722 47.68722 0 0 0 -33.94092-14.05859z"/><path d="m335.59814 48.40234 11.31348-11.31445a72.08234 72.08234 0 0 0 -101.82324 0l11.31348 11.31445a56.06457 56.06457 0 0 1 79.19628 0z"/></g></svg>