<svg height="512" viewBox="0 0 64 64" width="512" xmlns="http://www.w3.org/2000/svg"><g id="package-delivery-food-restaurant"><path d="m14 17h36v44h-36z" fill="#5bcbfa"/><circle cx="32" cy="39" fill="#ffda44" r="18"/><path d="m61 46v4h-2-9v-4h8z" fill="#c0ab91"/><path d="m59 28-2 11h-1-6v-11z" fill="#957856"/><path d="m61 24v4h-2-9v-4h8z" fill="#c0ab91"/><path d="m56 17 2 7h-8v-7z" fill="#ebe5dd"/><path d="m56 39 2 7h-8v-7z" fill="#e9e9ea"/><path d="m59 50-2 11h-7v-11z" fill="#957856"/><path d="m14 50v11h-7l-2-11z" fill="#957856"/><path d="m14 28v11h-6-1l-2-11z" fill="#957856"/><path d="m14 39v7h-8l2-7z" fill="#e9e9ea"/><path d="m14 17v7h-8l2-7z" fill="#ebe5dd"/><path d="m14 46v4h-9-2v-4h3z" fill="#c0ab91"/><path d="m14 24v4h-9-2v-4h3z" fill="#c0ab91"/><g fill="#fff"><path d="m29 34v3a2.961 2.961 0 0 1 -1.92 2.79 2.882 2.882 0 0 1 -2.16 0 2.961 2.961 0 0 1 -1.92-2.79v-3z"/><path d="m41 42v8h-4l1-9z"/><path d="m27.08 39.79.92 10.21h-4l.92-10.21a2.882 2.882 0 0 0 2.16 0z"/><path d="m41 39v3l-3-1-3-1v-4a6 6 0 0 1 6-6z"/></g><path d="m47 5v12h-6v-7a2.006 2.006 0 0 0 -2-2h-14a2.006 2.006 0 0 0 -2 2v7h-6v-12a2.006 2.006 0 0 1 2-2h26a2.006 2.006 0 0 1 2 2z" fill="#3780ea"/><path d="m57.98 39.18 1.85-10.18h1.17a1 1 0 0 0 1-1v-4a1 1 0 0 0 -1-1h-2.25l-1.79-6.27a1 1 0 0 0 -.96-.73h-8v-11a3.009 3.009 0 0 0 -3-3h-26a3.009 3.009 0 0 0 -3 3v11h-8a1 1 0 0 0 -.96.73l-1.79 6.27h-2.25a1 1 0 0 0 -1 1v4a1 1 0 0 0 1 1h1.17l1.85 10.18a.967.967 0 0 0 .67.76l-1.44 5.06h-2.25a1 1 0 0 0 -1 1v4a1 1 0 0 0 1 1h1.17l1.85 10.18a1 1 0 0 0 .98.82h50a1 1 0 0 0 .98-.82l1.85-10.18h1.17a1 1 0 0 0 1-1v-4a1 1 0 0 0 -1-1h-2.25l-1.44-5.06a.967.967 0 0 0 .67-.76zm-6.98-21.18h4.25l1.42 5h-5.67zm0 7h9v2h-9zm0 15h4.25l1.42 5h-5.67zm-33-35a1 1 0 0 1 1-1h26a1 1 0 0 1 1 1v11h-4v-6a3.009 3.009 0 0 0 -3-3h-14a3.009 3.009 0 0 0 -3 3v6h-4zm22 5v6h-16v-6a1 1 0 0 1 1-1h14a1 1 0 0 1 1 1zm-27 50h-5.17l-1.63-9h6.8zm0-11h-9v-2h9zm0-4h-5.67l1.42-5h4.25zm0-7h-5.17l-1.63-9h6.8zm0-11h-9v-2h9zm0-4h-5.67l1.42-5h4.25zm36 37h-34v-12.57a18.956 18.956 0 0 0 34 0zm-17-4a17 17 0 1 1 17-17 17.024 17.024 0 0 1 -17 17zm17-25.43a18.956 18.956 0 0 0 -34 0v-12.57h34zm7.17 29.43h-5.17v-9h6.8zm3.83-13v2h-9v-2zm-3.83-9h-5.17v-9h6.8z"/><path d="m28 29v4h-1v-4h-2v4h-1v-4h-2v8a4 4 0 0 0 1.86 3.37l-.86 9.54a1.01 1.01 0 0 0 1 1.09h4a1.01 1.01 0 0 0 1-1.09l-.86-9.54a4 4 0 0 0 1.86-3.37v-8zm-2.91 20 .73-8.02c.06 0 .12.02.18.02s.12-.02.18-.02l.73 8.02zm2.91-12a2 2 0 0 1 -4 0v-2h4z"/><path d="m41 29a7.009 7.009 0 0 0 -7 7v4a1 1 0 0 0 .684.948l2.233.745-.911 8.2a1 1 0 0 0 .994 1.107h4a1 1 0 0 0 1-1v-20a1 1 0 0 0 -1-1zm-2.883 20 .74-6.66 1.143.38v6.28zm1.883-8.388-4-1.333v-3.279a5.008 5.008 0 0 1 4-4.9v9.511z"/></g></svg>