<svg id="Capa_1" enable-background="new 0 0 512 512" height="512" viewBox="0 0 512 512" width="512" xmlns="http://www.w3.org/2000/svg"><g><path d="m0 256c0-141.231 114.365-255.75 255.538-256 140.257-.248 255.266 113.532 256.453 253.784.579 68.398-25.668 130.662-68.854 176.905-5.542 5.934-13.293 9.311-21.413 9.311h-331.641c-8.048 0-15.695-3.397-21.189-9.279-42.737-45.746-68.894-107.179-68.894-174.721z" fill="#40c1fa"/><path d="m443.778 256c0 103.707-84.071 187.778-187.778 187.778s-187.778-84.071-187.778-187.778 84.071-187.778 187.778-187.778 187.778 84.071 187.778 187.778z" fill="#72d1fb"/><path d="m201 347.833c0 8.284-6.716 15-15 15h-50c-8.284 0-15-6.716-15-15s6.716-15 15-15h50c8.284 0 15 6.716 15 15zm-117.778-62.833h-30c-8.284 0-15 6.716-15 15s6.716 15 15 15h30c8.284 0 15-6.716 15-15s-6.715-15-15-15zm399.261 59.275c-.38-8.068-7.33-14.275-15.406-14.275h-4.577c-8.284 0-15-6.716-15-15s-6.716-15-15-15h-20c-8.284 0-15 6.716-15 15s-6.716 15-15 15h-4.576c-8.077 0-15.026 6.207-15.406 14.275-.407 8.614 6.457 15.725 14.982 15.725h90c8.525 0 15.389-7.111 14.983-15.725z" fill="#93dcfc"/><path d="m418.818 26.166c-2.413 15.004 7.546 29.205 22.474 32.049 6.589 1.255 9.079 9.378 4.324 14.11-10.771 10.72-11.062 28.063-.657 39.138 4.593 4.889 1.832 12.923-4.795 13.957-15.015 2.342-25.444 16.201-23.536 31.278.842 6.654-6.114 11.532-12.083 8.473-13.524-6.931-30.108-1.849-37.425 11.47-3.23 5.879-11.725 5.736-14.756-.248-6.867-13.557-23.271-19.192-37.02-12.719-6.069 2.857-12.857-2.251-11.792-8.873 2.413-15.004-7.546-29.205-22.474-32.049-6.589-1.255-9.079-9.378-4.324-14.11 10.771-10.72 11.062-28.063.657-39.138-4.593-4.888-1.832-12.923 4.795-13.957 15.015-2.342 25.444-16.201 23.536-31.278-.842-6.654 6.114-11.532 12.083-8.473 13.524 6.931 30.108 1.849 37.425-11.47 3.23-5.879 11.725-5.736 14.756.248 6.867 13.557 23.271 19.192 37.02 12.719 6.068-2.858 12.857 2.25 11.792 8.873z" fill="#ffde91"/><path d="m410.73 90.483c0 27.363-22.182 49.545-49.545 49.545s-49.545-22.182-49.545-49.545 22.182-49.545 49.545-49.545 49.545 22.182 49.545 49.545z" fill="#ffc14f"/><path d="m390.912 90.483c0 16.418-13.309 29.727-29.727 29.727s-29.727-13.309-29.727-29.727 13.309-29.727 29.727-29.727 29.727 13.309 29.727 29.727z" fill="#ffa90b"/><path d="m421 245c0 30.376-24.624 55-55 55-22.186 0-41.304-13.136-50-32.055-8.696 18.919-27.814 32.055-50 32.055-16.588 0-31.461-7.344-41.545-18.957-9.285 17.24-27.502 28.957-48.455 28.957-30.376 0-55-24.624-55-55s24.624-55 55-55c16.588 0 31.461 7.344 41.545 18.957 9.285-17.24 27.502-28.957 48.455-28.957 22.186 0 41.304 13.136 50 32.055 8.696-18.919 27.814-32.055 50-32.055 30.376 0 55 24.624 55 55z" fill="#489160"/><path d="m264.5 337.438v132.562c0 4.142-3.357 7.5-7.5 7.5-4.142 0-7.5-3.358-7.5-7.5v-172.51c-58.587-.806-106-48.714-106-107.49 0-4.142 3.358-7.5 7.5-7.5s7.5 3.358 7.5 7.5c0 50.504 40.684 91.684 91 92.488v-112.488c0-4.142 3.358-7.5 7.5-7.5 4.143 0 7.5 3.358 7.5 7.5v152.426c43.873-1.84 79-38.108 79-82.426 0-4.142 3.357-7.5 7.5-7.5s7.5 3.358 7.5 7.5c0 52.59-41.853 95.588-94 97.438z" fill="#e4ab45"/><path d="m199.379 189.419c1.062 5.027 1.621 10.239 1.621 15.581 0 41.421-33.579 75-75 75s-75-33.579-75-75 33.579-75 75-75c1.68 0 3.348.056 5 .164 0-.055 0-.109 0-.164 0-33.137 26.863-60 60-60s60 26.863 60 60c0 30.293-22.45 55.343-51.621 59.419z" fill="#54a770"/><path d="m461 180c0 41.421-33.579 75-75 75-13.293 0-25.779-3.459-36.606-9.525-10.92 14.871-28.529 24.525-48.394 24.525-18.242 0-34.582-8.141-45.587-20.988-9.031 3.855-18.973 5.988-29.413 5.988-41.421 0-75-33.579-75-75s33.579-75 75-75c2.148 0 4.275.091 6.377.268 13.256-21.181 36.794-35.268 63.623-35.268 28.371 0 53.062 15.753 65.805 38.989 7.591-2.586 15.729-3.989 24.195-3.989 41.421 0 75 33.579 75 75z" fill="#6dc54a"/><path d="m294.084 430c48.063 0 54.146 69.701 6.818 78.075-14.578 2.579-29.583 3.925-44.902 3.925-74.197 0-141.022-31.565-187.778-82z" fill="#6dc54a"/><path d="m287.066 508.196c-.585-.102-1.169-.206-1.753-.311-47.012-8.523-40.643-77.885 7.136-77.885h151.329c-37.255 40.186-87.251 68.392-143.566 78.196-4.347.757-8.799.757-13.146 0z" fill="#82cd64"/><path d="m207.732 395.77-18.803 40.883c-1.731 3.763-6.185 5.411-9.948 3.68-1.882-.865-3.234-2.411-3.9-4.211l-15.613-42.205c-1.437-3.885.547-8.199 4.432-9.636 3.885-1.437 8.199.547 9.636 4.432l9.331 25.223 11.237-24.433c1.731-3.763 6.185-5.411 9.948-3.68 3.763 1.73 5.411 6.184 3.68 9.947z" fill="#54a770"/><path d="m270 155c0 13.807-11.193 25-25 25s-25-11.193-25-25 11.193-25 25-25 25 11.193 25 25z" fill="#ffcd71"/><path d="m270 155c0 3.711-.809 7.234-2.26 10.401-3.167 1.451-6.689 2.26-10.401 2.26-13.807 0-25-11.193-25-25 0-3.712.809-7.234 2.26-10.401 3.167-1.451 6.689-2.26 10.401-2.26 13.807 0 25 11.193 25 25z" fill="#ffde91"/><path d="m360 210c0 11.046-8.954 20-20 20s-20-8.954-20-20 8.954-20 20-20 20 8.954 20 20z" fill="#ffc14f"/><path d="m400 415c0 13.807-11.193 25-25 25s-25-11.193-25-25 11.193-25 25-25 25 11.193 25 25z" fill="#f44545"/><path d="m398.79 422.706c-3.249 10.036-12.672 17.294-23.79 17.294-13.807 0-25-11.193-25-25 0-11.118 7.258-20.541 17.294-23.79-.786 2.427-1.21 5.017-1.21 7.706 0 13.807 11.193 25 25 25 2.688.001 5.278-.424 7.706-1.21zm-273.79-317.706c-11.046 0-20 8.954-20 20s8.954 20 20 20 20-8.954 20-20-8.954-20-20-20z" fill="#d63030"/><path d="m320 475c0 8.284-6.716 15-15 15s-15-6.716-15-15 6.716-15 15-15 15 6.716 15 15zm-150-255c0 11.046-8.954 20-20 20s-20-8.954-20-20 8.954-20 20-20 20 8.954 20 20zm235-90c-8.284 0-15 6.716-15 15s6.716 15 15 15 15-6.716 15-15-6.716-15-15-15z" fill="#fb5858"/></g></svg>