<svg id="Capa_1" enable-background="new 0 0 512 512" height="512" viewBox="0 0 512 512" width="512" xmlns="http://www.w3.org/2000/svg"><g><path d="m350.25 151h-30v154.25l30-30c16.569 0 30-13.431 30-30v-64.25c0-16.569-13.431-30-30-30z" fill="#ffd185"/><path d="m350.25 245.25v-64.25c0-16.569-13.431-30-30-30h-34.25c-16.569 0-30 13.431-30 30l-30 32.125 30 32.125c0 16.569 13.431 30 30 30l17.125 30 17.125-30c16.569 0 30-13.431 30-30z" fill="#ffe8c2"/><path d="m226 151h-30v154.25l30-30c16.569 0 30-13.431 30-30v-64.25c0-16.569-13.431-30-30-30z" fill="#ffba48"/><path d="m226 245.25v-64.25c0-16.569-13.431-30-30-30h-34.25c-16.569 0-30 13.431-30 30v64.25c0 16.569 13.431 30 30 30l17.125 30 17.125-30c16.569 0 30-13.431 30-30z" fill="#ffd185"/><path d="m474.5 275.25h-30v124.25h30c16.569 0 30-13.431 30-30v-64.25c0-16.569-13.431-30-30-30z" fill="#ffba48"/><path d="m444.5 275.25h-34.25c-16.569 0-30 13.431-30 30l-30 32.125 30 32.125c0 16.569 13.431 30 30 30h34.25c16.569 0 30-13.431 30-30v-64.25c0-16.569-13.431-30-30-30z" fill="#ffd185"/><path d="m350.25 275.25h-30v124.25h30c16.569 0 30-13.431 30-30v-64.25c0-16.569-13.431-30-30-30z" fill="#ff9a42"/><path d="m320.25 275.25h-34.25c-16.569 0-30 13.431-30 30l-30 32.125 30 32.125c0 16.569 13.431 30 30 30h34.25c16.569 0 30-13.431 30-30v-64.25c0-16.569-13.431-30-30-30z" fill="#ffba48"/><path d="m226 275.25h-30v124.25h30c16.569 0 30-13.431 30-30v-64.25c0-16.569-13.431-30-30-30z" fill="#ffd185"/><path d="m226 369.5v-64.25c0-16.569-13.431-30-30-30h-34.25c-16.569 0-30 13.431-30 30l-30 32.125 30 32.125c0 16.569 13.431 30 30 30h34.25c16.569 0 30-13.431 30-30z" fill="#ffe8c2"/><path d="m101.75 275.25h-30v124.25h30c16.569 0 30-13.431 30-30v-64.25c0-16.569-13.431-30-30-30z" fill="#ffba48"/><path d="m101.75 369.5v-64.25c0-16.569-13.431-30-30-30h-34.25c-16.569 0-30 13.431-30 30v64.25c0 16.569 13.431 30 30 30h34.25c16.569 0 30-13.431 30-30z" fill="#ffd185"/><circle cx="350.25" cy="181" r="7.5"/><path d="m399.5 444.5v60h30c24.853 0 45-20.147 45-45v-15z" fill="#ccc"/><path d="m444.5 459.5v-15h-407v15c0 24.853 20.147 45 45 45h317c24.853 0 45-20.147 45-45z" fill="#ebebeb"/><path d="m489.5 429.5h-30v30h30c8.284 0 15-6.716 15-15s-6.716-15-15-15z" fill="#ebebeb"/><path d="m474.5 444.5c0-8.284-6.716-15-15-15h-437c-8.284 0-15 6.716-15 15s6.716 15 15 15h437c8.284 0 15-6.716 15-15z" fill="#fff"/><circle cx="37.5" cy="369.5" r="7.5"/><circle cx="67.5" cy="339.5" r="7.5"/><g fill="#adcb74"><path d="m286 128.5c-4.143 0-7.5-3.358-7.5-7.5 0-20.536 7.395-29.862 17.629-42.769 12.195-15.38 27.371-34.519 27.371-70.731 0-4.142 3.357-7.5 7.5-7.5s7.5 3.358 7.5 7.5c0 41.438-18.424 64.673-30.615 80.048-9.578 12.079-14.385 18.141-14.385 33.452 0 4.142-3.357 7.5-7.5 7.5z"/><path d="m226 128.5c-4.143 0-7.5-3.358-7.5-7.5 0-41.438 18.424-64.673 30.615-80.048 9.578-12.079 14.385-18.141 14.385-33.452 0-4.142 3.357-7.5 7.5-7.5s7.5 3.358 7.5 7.5c0 20.536-7.395 29.862-17.629 42.769-12.195 15.38-27.371 34.519-27.371 70.731 0 4.142-3.357 7.5-7.5 7.5z"/><path d="m256 128.5c-4.143 0-7.5-3.358-7.5-7.5 0-30.988 12.816-47.15 24.123-61.41 10.736-13.539 20.877-26.328 20.877-52.09 0-4.142 3.357-7.5 7.5-7.5s7.5 3.358 7.5 7.5c0 30.988-12.816 47.15-24.123 61.41-10.736 13.539-20.877 26.328-20.877 52.09 0 4.142-3.357 7.5-7.5 7.5z"/></g><circle cx="350.25" cy="181" r="7.5"/><path d="m474.5 267.75h-64.25c-12.254 0-23.153 5.909-30 15.026-2.14-2.85-4.676-5.386-7.526-7.526 9.117-6.847 15.026-17.746 15.026-30v-64.25c0-20.678-16.822-37.5-37.5-37.5h-64.25c-12.254 0-23.153 5.909-30 15.026-6.847-9.117-17.746-15.026-30-15.026h-64.25c-20.678 0-37.5 16.822-37.5 37.5v64.25c0 12.254 5.909 23.153 15.026 30-2.85 2.14-5.386 4.676-7.526 7.526-6.847-9.117-17.746-15.026-30-15.026h-64.25c-20.678 0-37.5 16.822-37.5 37.5v64.25c0 20.678 16.822 37.5 37.5 37.5h64.25c12.254 0 23.153-5.909 30-15.026 6.847 9.117 17.746 15.026 30 15.026h64.25c12.254 0 23.153-5.909 30-15.026 6.847 9.117 17.746 15.026 30 15.026h64.25c12.254 0 23.153-5.909 30-15.026 6.847 9.117 17.746 15.026 30 15.026h64.25c20.678 0 37.5-16.822 37.5-37.5v-64.25c0-20.678-16.822-37.5-37.5-37.5zm-188.5-109.25h64.25c12.406 0 22.5 10.093 22.5 22.5v64.25c0 12.407-10.094 22.5-22.5 22.5h-64.25c-12.406 0-22.5-10.093-22.5-22.5v-64.25c0-12.407 10.094-22.5 22.5-22.5zm-30 124.276c-2.14-2.85-4.676-5.386-7.526-7.526 2.85-2.14 5.386-4.676 7.526-7.526 2.14 2.85 4.676 5.386 7.526 7.526-2.85 2.14-5.386 4.676-7.526 7.526zm-116.75-37.526v-64.25c0-12.407 10.094-22.5 22.5-22.5h64.25c12.406 0 22.5 10.093 22.5 22.5v64.25c0 12.407-10.094 22.5-22.5 22.5h-64.25c-12.406 0-22.5-10.093-22.5-22.5zm-37.5 146.75h-64.25c-12.406 0-22.5-10.093-22.5-22.5v-64.25c0-12.407 10.094-22.5 22.5-22.5h64.25c12.406 0 22.5 10.093 22.5 22.5v64.25c0 12.407-10.094 22.5-22.5 22.5zm124.25 0h-64.25c-12.406 0-22.5-10.093-22.5-22.5v-64.25c0-12.407 10.094-22.5 22.5-22.5h64.25c12.406 0 22.5 10.093 22.5 22.5v64.25c0 12.407-10.094 22.5-22.5 22.5zm124.25 0h-64.25c-12.406 0-22.5-10.093-22.5-22.5v-64.25c0-12.407 10.094-22.5 22.5-22.5h64.25c12.406 0 22.5 10.093 22.5 22.5v64.25c0 12.407-10.094 22.5-22.5 22.5zm146.75-22.5c0 12.407-10.094 22.5-22.5 22.5h-64.25c-12.406 0-22.5-10.093-22.5-22.5v-64.25c0-12.407 10.094-22.5 22.5-22.5h64.25c12.406 0 22.5 10.093 22.5 22.5z"/><path d="m489.5 422h-467c-12.406 0-22.5 10.093-22.5 22.5s10.094 22.5 22.5 22.5h8.034c3.65 25.409 25.563 45 51.966 45h347c26.402 0 48.315-19.591 51.966-45h8.034c12.406 0 22.5-10.093 22.5-22.5s-10.094-22.5-22.5-22.5zm0 30h-422c-4.143 0-7.5 3.358-7.5 7.5s3.357 7.5 7.5 7.5h398.747c-3.485 17.095-18.638 30-36.747 30h-347c-20.678 0-37.5-16.822-37.5-37.5 0-4.142-3.357-7.5-7.5-7.5h-15c-4.136 0-7.5-3.364-7.5-7.5s3.364-7.5 7.5-7.5h467c4.136 0 7.5 3.364 7.5 7.5s-3.364 7.5-7.5 7.5z"/><circle cx="37.5" cy="369.5" r="7.5"/><circle cx="67.5" cy="339.5" r="7.5"/></g></svg>